<svg id="Livello_1" data-name="Livello 1" xmlns="http://www.w3.org/2000/svg" xmlns:xlink="http://www.w3.org/1999/xlink" viewBox="0 0 189.35 85.04"><defs><style>.cls-1{fill:url(#Sfumatura_senza_nome_4);}.cls-2{fill:url(#Sfumatura_senza_nome_4-2);}.cls-3{fill:url(#Sfumatura_senza_nome_4-3);}.cls-4{fill:url(#Sfumatura_senza_nome_4-4);}.cls-5{fill:url(#Sfumatura_senza_nome_4-5);}.cls-6{fill:url(#Sfumatura_senza_nome_4-6);}.cls-7{fill:url(#Sfumatura_senza_nome_4-7);}.cls-8{fill:url(#Sfumatura_senza_nome_4-8);}.cls-9{fill:url(#Sfumatura_senza_nome_4-9);}.cls-10{fill:url(#Sfumatura_senza_nome_4-10);}.cls-11{fill:url(#Sfumatura_senza_nome_4-11);}.cls-12{fill:url(#Sfumatura_senza_nome_4-12);}.cls-13{fill:url(#Sfumatura_senza_nome_4-13);}.cls-14{fill:url(#Sfumatura_senza_nome_4-14);}.cls-15{fill:url(#Sfumatura_senza_nome_4-15);}.cls-16{fill:url(#Sfumatura_senza_nome_4-16);}.cls-17{fill:url(#Sfumatura_senza_nome_4-17);}.cls-18{fill:url(#Sfumatura_senza_nome_4-18);}.cls-19{fill:url(#Sfumatura_senza_nome_4-19);}.cls-20{fill:url(#Sfumatura_senza_nome_4-20);}.cls-21{fill:url(#Sfumatura_senza_nome_4-21);}.cls-22{fill:url(#Sfumatura_senza_nome_4-22);}.cls-23{fill:#005bea;}</style><linearGradient id="Sfumatura_senza_nome_4" x1="13.44" y1="91.83" x2="89.27" y2="15.99" gradientUnits="userSpaceOnUse"><stop offset="0" stop-color="#005bea"/><stop offset="1" stop-color="#00c6fb"/></linearGradient><linearGradient id="Sfumatura_senza_nome_4-2" x1="23.17" y1="101.56" x2="99.01" y2="25.73" xlink:href="#Sfumatura_senza_nome_4"/><linearGradient id="Sfumatura_senza_nome_4-3" x1="9.19" y1="87.59" x2="85.03" y2="11.75" xlink:href="#Sfumatura_senza_nome_4"/><linearGradient id="Sfumatura_senza_nome_4-4" x1="-11.25" y1="67.15" x2="64.59" y2="-8.69" xlink:href="#Sfumatura_senza_nome_4"/><linearGradient id="Sfumatura_senza_nome_4-5" x1="16.45" y1="94.84" x2="92.28" y2="19.01" xlink:href="#Sfumatura_senza_nome_4"/><linearGradient id="Sfumatura_senza_nome_4-6" x1="19.08" y1="97.47" x2="94.92" y2="21.64" xlink:href="#Sfumatura_senza_nome_4"/><linearGradient id="Sfumatura_senza_nome_4-7" x1="-14.58" y1="63.82" x2="61.26" y2="-12.02" xlink:href="#Sfumatura_senza_nome_4"/><linearGradient id="Sfumatura_senza_nome_4-8" x1="-10.61" y1="67.79" x2="65.23" y2="-8.05" xlink:href="#Sfumatura_senza_nome_4"/><linearGradient id="Sfumatura_senza_nome_4-9" x1="-13.79" y1="64.6" x2="62.04" y2="-11.24" xlink:href="#Sfumatura_senza_nome_4"/><linearGradient id="Sfumatura_senza_nome_4-10" x1="-12.44" y1="65.96" x2="63.4" y2="-9.88" xlink:href="#Sfumatura_senza_nome_4"/><linearGradient id="Sfumatura_senza_nome_4-11" x1="-14.79" y1="63.61" x2="61.05" y2="-12.23" xlink:href="#Sfumatura_senza_nome_4"/><linearGradient id="Sfumatura_senza_nome_4-12" x1="0.88" y1="79.27" x2="76.72" y2="3.44" xlink:href="#Sfumatura_senza_nome_4"/><linearGradient id="Sfumatura_senza_nome_4-13" x1="-2.39" y1="76.01" x2="73.45" y2="0.17" xlink:href="#Sfumatura_senza_nome_4"/><linearGradient id="Sfumatura_senza_nome_4-14" x1="5.76" y1="84.16" x2="81.6" y2="8.32" xlink:href="#Sfumatura_senza_nome_4"/><linearGradient id="Sfumatura_senza_nome_4-15" x1="-8.18" y1="70.22" x2="67.66" y2="-5.62" xlink:href="#Sfumatura_senza_nome_4"/><linearGradient id="Sfumatura_senza_nome_4-16" x1="-5.44" y1="72.95" x2="70.39" y2="-2.89" xlink:href="#Sfumatura_senza_nome_4"/><linearGradient id="Sfumatura_senza_nome_4-17" x1="21.32" y1="99.71" x2="97.15" y2="23.87" xlink:href="#Sfumatura_senza_nome_4"/><linearGradient id="Sfumatura_senza_nome_4-18" x1="25.24" y1="103.63" x2="101.08" y2="27.8" xlink:href="#Sfumatura_senza_nome_4"/><linearGradient id="Sfumatura_senza_nome_4-19" x1="3.64" y1="81.44" x2="79.47" y2="5.6" xlink:href="#Sfumatura_senza_nome_4"/><linearGradient id="Sfumatura_senza_nome_4-20" x1="-0.63" y1="77.17" x2="75.2" y2="1.33" xlink:href="#Sfumatura_senza_nome_4"/><linearGradient id="Sfumatura_senza_nome_4-21" x1="10.31" y1="88.11" x2="86.14" y2="12.27" xlink:href="#Sfumatura_senza_nome_4"/><linearGradient id="Sfumatura_senza_nome_4-22" x1="6.26" y1="84.06" x2="82.1" y2="8.23" xlink:href="#Sfumatura_senza_nome_4"/></defs><path class="cls-1" d="M61.65,35.59l-.41,1.51,22.58-7.62a42.88,42.88,0,0,0-2-4.52Z" transform="translate(-1.7 -2.29)"/><path class="cls-2" d="M85.86,53.13,58.09,48.85,58,49.3l26.64,8.62A43.28,43.28,0,0,0,85.86,53.13Z" transform="translate(-1.7 -2.29)"/><path class="cls-3" d="M80.65,23a44.29,44.29,0,0,0-2.8-4.12L73.68,22,53.09,36.86Z" transform="translate(-1.7 -2.29)"/><path class="cls-4" d="M16.75,38.89a14.11,14.11,0,0,1,19.5,5.23l.76.05,2.4-1a13.51,13.51,0,0,0-2.18-.33A15.18,15.18,0,0,0,33,38c-.8-.6-1.73-1-2.46-1.6C29.24,35.3,28,34,26.79,32.8L14.48,20.94l-3.15-3a43,43,0,0,0-3.07,4.26L29.35,36A19.22,19.22,0,0,0,24,35.19q-8.43-5.53-16.88-11a40.72,40.72,0,0,0-2.27,4.75L21,35.55a18.35,18.35,0,0,0-3.15,1.18L4,31a44,44,0,0,0-1.4,5.08L15,38.62a18.5,18.5,0,0,0-1.9,2L2.2,38.38a43,43,0,0,0-.5,5.26l7.87.06A14.14,14.14,0,0,0,6.15,46l-4.45,0c0,1.35.18,2.7.35,4.05H2c0,.3.09.6.12.89a15,15,0,0,1,2-.59,9.76,9.76,0,0,1,7.39-5.84,13.84,13.84,0,0,1,5.22-5.56Z" transform="translate(-1.7 -2.29)"/><path class="cls-5" d="M60.52,39.77l-.25.95,25.58-4.28a41.72,41.72,0,0,0-1.26-4.8Z" transform="translate(-1.7 -2.29)"/><path class="cls-6" d="M86.24,38.7,59.61,43.16l-.17.66,27.26-.18A42.24,42.24,0,0,0,86.24,38.7Z" transform="translate(-1.7 -2.29)"/><path class="cls-7" d="M22.67,8.14a45.55,45.55,0,0,0-4.32,2.92l16.5,23.15Z" transform="translate(-1.7 -2.29)"/><path class="cls-8" d="M44,2.29a39,39,0,0,0-5.06.38l2.34,28.87Z" transform="translate(-1.7 -2.29)"/><path class="cls-9" d="M29.44,5A44.09,44.09,0,0,0,24.69,7L36.84,33Z" transform="translate(-1.7 -2.29)"/><path class="cls-10" d="M36.63,3a42.47,42.47,0,0,0-5,1.21l7.36,28Z" transform="translate(-1.7 -2.29)"/><path class="cls-11" d="M12.83,16.16l20.23,19.5L16.57,12.51A42.85,42.85,0,0,0,12.83,16.16Z" transform="translate(-1.7 -2.29)"/><path class="cls-12" d="M71.16,12A41.71,41.71,0,0,0,67.1,9L49.94,34.23Z" transform="translate(-1.7 -2.29)"/><path class="cls-13" d="M65.13,7.84A42.23,42.23,0,0,0,60.6,5.62L48,33.06Z" transform="translate(-1.7 -2.29)"/><path class="cls-14" d="M76.4,17.05a45.07,45.07,0,0,0-3.5-3.57L51.75,35.67Z" transform="translate(-1.7 -2.29)"/><path class="cls-15" d="M51.34,2.9a40.79,40.79,0,0,0-5.08-.52L43.52,31.92Z" transform="translate(-1.7 -2.29)"/><path class="cls-16" d="M58.46,4.78A42.11,42.11,0,0,0,53.6,3.34L45.8,32.27Z" transform="translate(-1.7 -2.29)"/><path class="cls-17" d="M86.7,45.93l-27.88.19-.14.5,27.57,4.24A44,44,0,0,0,86.7,45.93Z" transform="translate(-1.7 -2.29)"/><path class="cls-18" d="M27.57,82.88l-.15,0A10.69,10.69,0,0,1,26,83h-.36c.89.43,1.87.85,2.95,1.27l.7.28.2.08h0l.18.06c.54.2,1.14.4,1.61.56l.84.24a41,41,0,0,0,4.44,1.06L37.29,78l.35.11a8.41,8.41,0,0,0,1.63.33l.28,0-.7,8.5a42.22,42.22,0,0,0,5.12.38l-.87-9.21.23-.07A10.47,10.47,0,0,0,45,77.42l.38-.18.93,10a43.84,43.84,0,0,0,5.13-.53L48.18,74.94l.1-.11A10.42,10.42,0,0,0,49.51,73l.35-.64,3.79,13.87a41.18,41.18,0,0,0,4.85-1.44L52.73,72.47h.46A10,10,0,0,0,55,72.29l.22,0,.09.2L60.65,84a40.44,40.44,0,0,0,4.53-2.23L58,71.3l.29-.16a10,10,0,0,0,1.38-.92l.25-.19,7.28,10.52a43.4,43.4,0,0,0,4-2.94L61.82,68l.13-.2a10.84,10.84,0,0,0,.86-1.51l.17-.38,10,10.23a41.65,41.65,0,0,0,3.49-3.57l-12.7-9.38,0-.17a10.86,10.86,0,0,0,.09-1.33c0-.24,0-.47,0-.71l0-.63L77.88,70.74a42.49,42.49,0,0,0,2.8-4.12L63,57.55l0-.1a10.94,10.94,0,0,0-1.72-2.75l-1-1.12,21.54,11a43.76,43.76,0,0,0,2-4.53L57.37,51.53,57,53a9.92,9.92,0,0,1,3,2.44,9.49,9.49,0,0,1,1.85,3.51h0l0,.1a9.16,9.16,0,0,1,.32,2.38v.29h0a9.63,9.63,0,0,1-.53,2.84v.21a9.39,9.39,0,0,1-.83,1.69l-.2.32,0-.06a10.08,10.08,0,0,1-1.7,1.92h0l-.2.2a8.8,8.8,0,0,1-1.48,1l-.07,0a8.51,8.51,0,0,1-1,.46l-.24.1a7.8,7.8,0,0,1-1.06.36l-.11,0a10.85,10.85,0,0,1-2.57.33h0a8.2,8.2,0,0,1-.89,0c-.2,0-.4,0-.6-.07l-.08,0-.15,0c-.26,0-.52-.1-.77-.16s-.55-.15-.8-.24h0a10.2,10.2,0,0,1-.82,2,7.9,7.9,0,0,1-.59.94A7.5,7.5,0,0,1,45,75.7a7.38,7.38,0,0,1-1.72.74c-.26.07-.53.14-.81.19s-.54.09-.82.12h-.08l-.76,0h-.24c-.28,0-.58,0-.88,0a18.13,18.13,0,0,1-2-.25A9.44,9.44,0,0,1,36,76.07a8.85,8.85,0,0,1-.43,1l-.14.29a10.15,10.15,0,0,1-1.55,2.18l-.16.17a9.87,9.87,0,0,1-1,.89,10.89,10.89,0,0,1-2.18,1.34,11.21,11.21,0,0,1-1.47.57l-.1,0A13.51,13.51,0,0,1,27.57,82.88Z" transform="translate(-1.7 -2.29)"/><polygon class="cls-19" points="22.81 59.28 22.83 59.27 55.37 35.28 19.46 59.02 23.27 68.4 22.81 59.28"/><polygon class="cls-20" points="8.52 55.98 17.35 57.57 53 35.58 8.52 55.98"/><polygon class="cls-21" points="57.45 35.15 26.79 59.23 47.81 63 57.45 35.15"/><polygon class="cls-22" points="24.98 60.62 24.89 69.06 33.31 61.75 24.98 60.62"/><path class="cls-23" d="M190.79,49.11H100.13a.25.25,0,0,1-.25-.25.25.25,0,0,1,.25-.25h90.66a.25.25,0,0,1,.25.25A.25.25,0,0,1,190.79,49.11Z" transform="translate(-1.7 -2.29)"/><path class="cls-23" d="M102.31,44.28H99.88V35.2h3.67c2.31,0,3.6,1.4,3.6,3.26s-1.29,3.22-3.6,3.22h-1.24Zm1.12-4.63a1.11,1.11,0,0,0,1.27-1.19,1.13,1.13,0,0,0-1.27-1.21h-1.12v2.4Z" transform="translate(-1.7 -2.29)"/><path class="cls-23" d="M113.27,43.19H110.1l-.45,1.09h-2.38L111.69,35c0-.09.12-.09.16,0l4.41,9.25h-2.51Zm-2.42-1.77h1.65l-.83-1.92Z" transform="translate(-1.7 -2.29)"/><path class="cls-23" d="M120.48,44.28h-2.43V35.2h3.67c2.31,0,3.6,1.4,3.6,3.26s-1.29,3.22-3.6,3.22h-1.24Zm1.12-4.63a1.11,1.11,0,0,0,1.27-1.19,1.13,1.13,0,0,0-1.27-1.21h-1.12v2.4Z" transform="translate(-1.7 -2.29)"/><path class="cls-23" d="M127.38,35.2h6.38v2h-3.95v1.5h3.29v1.94h-3.29v1.56h4.13v2h-6.56Z" transform="translate(-1.7 -2.29)"/><path class="cls-23" d="M138.49,44.28h-2.43V35.2h3.67c2.32,0,3.6,1.36,3.6,3.22a2.75,2.75,0,0,1-1.66,2.64l1.88,3.22h-2.63l-1.6-2.84h-.83Zm1.12-4.7c.83,0,1.27-.41,1.27-1.16s-.44-1.17-1.27-1.17h-1.12v2.33Z" transform="translate(-1.7 -2.29)"/><path class="cls-23" d="M148.08,44.28h-2.44V35.2h3.68c2.31,0,3.6,1.4,3.6,3.26s-1.29,3.22-3.6,3.22h-1.24Zm1.12-4.63a1.11,1.11,0,0,0,1.27-1.19,1.13,1.13,0,0,0-1.27-1.21h-1.12v2.4Z" transform="translate(-1.7 -2.29)"/><path class="cls-23" d="M155,35.2h2.43v7h3.86v2H155Z" transform="translate(-1.7 -2.29)"/><path class="cls-23" d="M168.73,43.19h-3.16l-.46,1.09h-2.38L167.16,35c0-.09.12-.09.16,0l4.41,9.25h-2.51Zm-2.42-1.77H168l-.83-1.92Z" transform="translate(-1.7 -2.29)"/><path class="cls-23" d="M175.79,39.75v4.53h-2.28V35.07c0-.08,0-.14.19,0l5.7,4.7V35.2h2.29v9.22c0,.11,0,.15-.19,0Z" transform="translate(-1.7 -2.29)"/><path class="cls-23" d="M184.21,35.2h6.37v2h-3.94v1.5h3.29v1.94h-3.29v1.56h4.13v2h-6.56Z" transform="translate(-1.7 -2.29)"/><path class="cls-23" d="M104.34,55.7v.35l-2.68,4.52H101l-.3-3.6c-.05-.66-.1-.85-.77-.85l.06-.31a2.19,2.19,0,0,1,1-.24c.48,0,.56.35.63,1.31l.11,1.47c0,.31,0,.58,0,.79s0,.47,0,.53h.06l.62-1.11a6.81,6.81,0,0,0,1.18-3Z" transform="translate(-1.7 -2.29)"/><path class="cls-23" d="M105.88,59.31a1.76,1.76,0,0,0-.06.4c0,.24.11.34.42.34l.37,0,0,.31a2.65,2.65,0,0,1-1.12.29c-.44,0-.66-.27-.66-.74a2.51,2.51,0,0,1,.08-.57L105.5,57a1.78,1.78,0,0,0,.06-.38c0-.35-.23-.49-.78-.49l.07-.31a2.58,2.58,0,0,1,1-.24c.42,0,.67.2.67.71a2.75,2.75,0,0,1-.08.58Zm.47-4.59a.63.63,0,1,1,.62-.63A.62.62,0,0,1,106.35,54.72Z" transform="translate(-1.7 -2.29)"/><path class="cls-23" d="M107.22,60.22l.17-1H108v.12c0,.61.23.85.9.85S110,60,110,59.31c0-.48-.28-.65-.74-.85l-.51-.22a1.33,1.33,0,0,1-1-1.29c0-1,.88-1.47,1.88-1.47a2.37,2.37,0,0,1,1.41.38l-.15.9h-.61c0-.52-.22-.82-.85-.82a.76.76,0,0,0-.86.78c0,.31.11.53.58.73l.51.22c.75.32,1.15.68,1.15,1.38,0,1-.85,1.62-2,1.62A2.5,2.5,0,0,1,107.22,60.22Z" transform="translate(-1.7 -2.29)"/><path class="cls-23" d="M112.86,60.67a.81.81,0,0,1-.87-.92,2.18,2.18,0,0,1,.05-.42l.5-2.34a2.08,2.08,0,0,0,0-.39c0-.35-.19-.48-.74-.48l.07-.31a2.32,2.32,0,0,1,1-.24c.37,0,.63.27.63.84a3.16,3.16,0,0,1-.07.56L113,59.24a2,2,0,0,0,0,.36c0,.24.1.36.33.36.62,0,1.34-1,1.73-1.61l.58-2.73h.9l-.77,3.69a1.89,1.89,0,0,0,0,.33c0,.28.15.4.49.4l.28,0,0,.31a2.17,2.17,0,0,1-1,.29c-.48,0-.71-.33-.71-.84a2.43,2.43,0,0,1,.06-.51A2.57,2.57,0,0,1,112.86,60.67Z" transform="translate(-1.7 -2.29)"/><path class="cls-23" d="M121.32,56a1.92,1.92,0,0,1,.37-.42h.5a5.46,5.46,0,0,0-.48,1.4l-.53,2.33a1.82,1.82,0,0,0-.05.35c0,.29.16.39.45.39l.32,0,0,.31a2.06,2.06,0,0,1-1,.29c-.51,0-.72-.3-.72-.79a2.38,2.38,0,0,1,.07-.56c-.42.66-1,1.38-1.83,1.38s-1.15-.52-1.15-1.35c0-2,1.51-3.82,3.09-3.82C120.84,55.48,121.23,55.63,121.32,56Zm-3,3.24c0,.54.22.76.52.76.55,0,1.27-.92,1.67-1.61l.49-2.07a.58.58,0,0,0-.61-.37C119.22,56,118.28,57.55,118.28,59.24Z" transform="translate(-1.7 -2.29)"/><path class="cls-23" d="M124.05,59.31a2.53,2.53,0,0,0-.06.41c0,.24.11.33.43.33l.4,0,0,.31a2.6,2.6,0,0,1-1.1.29c-.5,0-.7-.26-.7-.76a2.8,2.8,0,0,1,.06-.55l1-4.65a1.65,1.65,0,0,0,0-.36c0-.37-.21-.49-.69-.51l.07-.3,1.43-.26h.13a1.51,1.51,0,0,1,.06.47,5.63,5.63,0,0,1-.16,1.22Z" transform="translate(-1.7 -2.29)"/><path class="cls-23" d="M128.89,60.8c-.18.89-.61,1.61-1.53,1.61a1.35,1.35,0,0,1-.61-.16v-.31c.84,0,1.11-.27,1.26-1.06l.92-4.71h-.63l.06-.32.66-.22.16-.8a1.84,1.84,0,0,1,1.9-1.6,2.43,2.43,0,0,1,.95.18l-.17.83h-.61c0-.32-.05-.58-.34-.58s-.64.19-.78.88l-.21,1.08h1.21l-.25.55h-1.06Z" transform="translate(-1.7 -2.29)"/><path class="cls-23" d="M134.93,56a1.92,1.92,0,0,1,.37-.42h.5a5.46,5.46,0,0,0-.48,1.4l-.53,2.33a1.82,1.82,0,0,0,0,.35c0,.29.16.39.45.39l.32,0,0,.31a2.06,2.06,0,0,1-1,.29c-.51,0-.72-.3-.72-.79a2.38,2.38,0,0,1,.07-.56c-.42.66-1,1.38-1.83,1.38s-1.15-.52-1.15-1.35c0-2,1.51-3.82,3.09-3.82C134.45,55.48,134.84,55.63,134.93,56Zm-3,3.24c0,.54.22.76.52.76.55,0,1.27-.92,1.67-1.61l.49-2.07A.58.58,0,0,0,134,56C132.83,56,131.89,57.55,131.89,59.24Z" transform="translate(-1.7 -2.29)"/><path class="cls-23" d="M140.7,55.89l-.2.92h-.68v-.13c0-.5-.17-.72-.59-.72-1.06,0-1.78,1.47-1.78,2.89,0,.82.39,1.25,1,1.25a2,2,0,0,0,1.36-.61l.26.35a2.5,2.5,0,0,1-1.81.83,1.69,1.69,0,0,1-1.8-1.9c0-1.54,1.16-3.28,2.82-3.28A2.06,2.06,0,0,1,140.7,55.89Z" transform="translate(-1.7 -2.29)"/><path class="cls-23" d="M144,56.17h-1.06l-.64,3a2.49,2.49,0,0,0-.06.49c0,.35.18.47.55.47a1.86,1.86,0,0,0,.6-.13l.08.33a2.51,2.51,0,0,1-1.13.32c-.63,0-1-.26-1-.91a2.49,2.49,0,0,1,.06-.5l.65-3.09h-.59l.06-.32.71-.23a5.4,5.4,0,0,1,.75-1.42l.52-.08a13.13,13.13,0,0,0-.42,1.5h1.19Z" transform="translate(-1.7 -2.29)"/><path class="cls-23" d="M146.29,60.67a1.78,1.78,0,0,1-1.85-1.92c0-1.86,1.24-3.26,2.63-3.26a1.78,1.78,0,0,1,1.85,1.94C148.92,59.15,147.86,60.67,146.29,60.67ZM147,56a1.27,1.27,0,0,0-1,.63,4.19,4.19,0,0,0-.61,2.3c0,.78.26,1.29.93,1.29a1.19,1.19,0,0,0,.91-.45,3.91,3.91,0,0,0,.72-2.46C148,56.44,147.69,56,147,56Z" transform="translate(-1.7 -2.29)"/><path class="cls-23" d="M152.89,55.48a.87.87,0,0,1,.28.05l-.21,1a.71.71,0,0,0-.3,0c-.69,0-1.26.61-1.52,1.85l-.46,2.18h-.91l.75-3.54a2.08,2.08,0,0,0,0-.39c0-.35-.19-.48-.74-.48l.07-.31a2.32,2.32,0,0,1,1-.24c.38,0,.57.29.57.85a3.08,3.08,0,0,1,0,.53C151.77,56.17,152.33,55.48,152.89,55.48Z" transform="translate(-1.7 -2.29)"/><path class="cls-23" d="M154.65,60.55a19.6,19.6,0,0,0-.24-2.39L154.23,57c-.1-.65-.16-.85-.82-.85l.07-.31a2.1,2.1,0,0,1,.93-.24c.48,0,.55.33.69,1.31l.17,1.18a9,9,0,0,1,.11,1.32c0,.13,0,.24,0,.3h.06l.52-1a8,8,0,0,0,1.13-3.16l.87.15v.35l-2.58,4.71c-.66,1.2-1.17,1.72-2.08,1.9l-.17-.6A2.41,2.41,0,0,0,155,60.52Z" transform="translate(-1.7 -2.29)"/></svg>