<svg width="14" height="14" viewBox="0 0 14 14" fill="none" xmlns="http://www.w3.org/2000/svg">
<g clip-path="url(#clip0_1_14)">
<path d="M2.51351 3.54889V12.47H9.46965V14H2.38914C2.00895 14 1.6796 13.8614 1.40866 13.5884C1.13789 13.3155 1 12.9829 1 12.5978V3.54889H2.51351ZM10.6109 1C10.991 1.00002 11.3204 1.13855 11.5913 1.41154C11.8621 1.68456 12 2.01706 12 2.40222V10.0489C12 10.434 11.8621 10.7666 11.5913 11.0396C11.3204 11.3125 10.991 11.4511 10.6109 11.4511H4.91865C4.53854 11.451 4.20987 11.3125 3.93898 11.0396C3.668 10.7665 3.53032 10.4342 3.53032 10.0489V2.40222C3.53032 2.01691 3.668 1.68462 3.93898 1.41154C4.20987 1.13859 4.53854 1.00007 4.91865 1H10.6109ZM5.04302 9.9211H10.4865V2.53H5.04302V9.9211Z" fill="#24292E" stroke="#24292E" stroke-width="0.3"/>
</g>
<defs>
<clipPath id="clip0_1_14">
<rect width="14" height="14" fill="white"/>
</clipPath>
</defs>
</svg>
