<svg width="14" height="14" viewBox="0 0 14 14" fill="none" xmlns="http://www.w3.org/2000/svg">
<path d="M1.55556 14C1.12778 14 0.761574 13.8477 0.456944 13.5431C0.152315 13.2384 0 12.8722 0 12.4444V1.55556C0 1.12778 0.152315 0.761574 0.456944 0.456944C0.761574 0.152315 1.12778 0 1.55556 0H7V1.55556H1.55556V12.4444H12.4444V7H14V12.4444C14 12.8722 13.8477 13.2384 13.5431 13.5431C13.2384 13.8477 12.8722 14 12.4444 14H1.55556ZM5.21111 9.87778L4.12222 8.78889L11.3556 1.55556H8.55556V0H14V5.44444H12.4444V2.64444L5.21111 9.87778Z" fill="black"/>
</svg>
