<svg id="Livello_1" data-name="Livello 1" xmlns="http://www.w3.org/2000/svg" viewBox="0 0 393 126.35"><defs><style>.cls-1{fill:#000ccc;}</style></defs><path class="cls-1" d="M29.44,58.73a20.81,20.81,0,0,0-12,3.79l-.17-.09V59.68H9.5v61.21h7.74v-20.2l.17-.09a23.83,23.83,0,0,0,10.4,2.32c12.21,0,22.09-8.68,22.09-22.26C49.9,67.59,40.79,58.73,29.44,58.73ZM28,96.13a23.27,23.27,0,0,1-10.74-2.92V69.57A17.58,17.58,0,0,1,28.15,65.7c8.43,0,13.93,7,13.93,15.56S36.41,96.13,28,96.13Z" transform="translate(-9.5 -7.5)"/><path class="cls-1" d="M87.73,91.66v-18c0-5.24-1.72-8.85-4.21-11.09-3-2.75-7.48-3.87-12.64-3.87a26.6,26.6,0,0,0-14.1,3.62v7.56a22.05,22.05,0,0,1,13-4.21c3.61,0,6.19.86,7.82,2.32S80,71.89,80,75v3.53a37,37,0,0,0-9-1.12c-4.38,0-8.68.77-11.86,2.84a11.75,11.75,0,0,0-5.59,10.31A11.26,11.26,0,0,0,58,99.91a16.89,16.89,0,0,0,10.06,3,20,20,0,0,0,13-4.64h.18a9,9,0,0,0,8.16,4.47,11,11,0,0,0,4.13-.77V95.53a6,6,0,0,1-2.49.6C88.67,96.13,87.73,94.24,87.73,91.66ZM80,92.35A17.64,17.64,0,0,1,69.42,96c-4.56,0-8.08-2.06-8.08-6.18,0-5,5.15-6.54,10.4-6.54A31.8,31.8,0,0,1,80,84.44Z" transform="translate(-9.5 -7.5)"/><path class="cls-1" d="M117.73,58.73a20.84,20.84,0,0,0-12,3.79l-.17-.09V59.68H97.79v61.21h7.73v-20.2l.17-.09a23.88,23.88,0,0,0,10.41,2.32c12.2,0,22.09-8.68,22.09-22.26C138.19,67.59,129.08,58.73,117.73,58.73Zm-1.46,37.4a23.32,23.32,0,0,1-10.75-2.92V69.57a17.61,17.61,0,0,1,10.92-3.87c8.43,0,13.93,7,13.93,15.56S124.69,96.13,116.27,96.13Z" transform="translate(-9.5 -7.5)"/><path class="cls-1" d="M162.78,58.73c-11.35,0-21.07,8.77-21.07,22.1s9.8,22.09,22.87,22.09c5.5,0,11.35-1.55,15.13-4V90.71A24.07,24.07,0,0,1,165.1,96c-8.34,0-14.53-4.56-15.65-12.9h32.32A25.39,25.39,0,0,0,182,79.2C182,66,173.09,58.73,162.78,58.73ZM149.62,77c1.38-7.82,7.4-11.26,13-11.26,5.08,0,11.27,2.84,12,11.26Z" transform="translate(-9.5 -7.5)"/><path class="cls-1" d="M195.94,66l-.18-.09V59.68H188V102h7.73V74.47c2.67-4.56,6.71-7.48,12.47-7.48a12.36,12.36,0,0,1,3,.34V59.68a10.4,10.4,0,0,0-2.75-.34A15.4,15.4,0,0,0,195.94,66Z" transform="translate(-9.5 -7.5)"/><path class="cls-1" d="M235.22,58.73a20.81,20.81,0,0,0-12,3.79l-.18-.09V59.68h-7.73v61.21H223v-20.2l.18-.09a23.83,23.83,0,0,0,10.4,2.32c12.21,0,22.09-8.68,22.09-22.26C255.68,67.59,246.57,58.73,235.22,58.73Zm-1.46,37.4A23.32,23.32,0,0,1,223,93.21V69.57a17.61,17.61,0,0,1,10.92-3.87c8.43,0,13.93,7,13.93,15.56S242.18,96.13,233.76,96.13Z" transform="translate(-9.5 -7.5)"/><path class="cls-1" d="M310.34,91.66v-18c0-5.24-1.72-8.85-4.21-11.09-3-2.75-7.48-3.87-12.64-3.87a26.56,26.56,0,0,0-14.09,3.62v7.56a22.05,22.05,0,0,1,13-4.21c3.61,0,6.19.86,7.82,2.32s2.41,3.87,2.41,7v3.53a37,37,0,0,0-9-1.12c-4.38,0-8.68.77-11.86,2.84a11.73,11.73,0,0,0-5.59,10.31,11.26,11.26,0,0,0,4.47,9.37,16.89,16.89,0,0,0,10.06,3,20.06,20.06,0,0,0,13-4.64h.17a9,9,0,0,0,8.17,4.47,11,11,0,0,0,4.12-.77V95.53a5.93,5.93,0,0,1-2.49.6C311.29,96.13,310.34,94.24,310.34,91.66Zm-7.73.69A17.67,17.67,0,0,1,292,96C287.48,96,284,94,284,89.86c0-5,5.16-6.54,10.4-6.54a31.81,31.81,0,0,1,8.26,1.12Z" transform="translate(-9.5 -7.5)"/><path class="cls-1" d="M343.1,58.73a21,21,0,0,0-14.79,6.37l-.17-.09V59.68H320.4V102h7.74V73c3-4.05,8.42-7.05,13.24-7.05a8.74,8.74,0,0,1,6.79,2.75c1.37,1.63,2,4.21,2,8.59V102h7.73V75.84c0-6.53-1.2-9.8-3.52-12.46A14.64,14.64,0,0,0,343.1,58.73Z" transform="translate(-9.5 -7.5)"/><path class="cls-1" d="M383.24,58.73c-11.34,0-21.06,8.77-21.06,22.1s9.8,22.09,22.87,22.09c5.5,0,11.35-1.55,15.13-4V90.71A24.08,24.08,0,0,1,385.56,96c-8.33,0-14.52-4.56-15.64-12.9h32.32a26.74,26.74,0,0,0,.26-3.86C402.5,66,393.56,58.73,383.24,58.73ZM370.09,77c1.38-7.82,7.39-11.26,13-11.26,5.07,0,11.26,2.84,11.95,11.26Z" transform="translate(-9.5 -7.5)"/><path class="cls-1" d="M293.42,110.93c-5.64-3.33-13-4-20.07-2.14a58.16,58.16,0,0,1-2.27-7.6c-3-14-1.38-35.94,2-54.8l.9-1,13.15,5,2.11-2.08-.1-.29c-.84-2.31-6.93-30-9-39.55l-.07-.29-2.87-.67L248.92,43.07l-.2.25L250.2,46,265,44.25l.45,1C262,65,260.29,88,263.52,102.84a57.33,57.33,0,0,0,1.93,6.77c.27.79.53,1.55.82,2.29-7.06,3.86-12.46,9.78-16.42,14.73l5.94,4.37c3.41-4.24,8-9.13,13.58-12.36,4.17,7.51,8.57,10.61,9,10.93a17.74,17.74,0,0,0,11.19,4.28,11.94,11.94,0,0,0,9.72-4.75,11.29,11.29,0,0,0,.84-11A16.1,16.1,0,0,0,293.42,110.93ZM269.34,45.17,267.9,42l6.55-17.86-2.82,18.55Zm9.25-27.11c2,8.88,4.76,21.53,6.27,27.68L275,42Zm-5.29,0L265,40.68l-10.64,1.24Zm20.15,105.16a3,3,0,0,1-1.05,1.95c-3.55,3.35-9.43-1.61-12.83-5.51a25.45,25.45,0,0,1-2.82-3.92,19.39,19.39,0,0,1,12.74,1.81C292.94,119.54,293.59,121.8,293.45,123.26Z" transform="translate(-9.5 -7.5)"/></svg>